<?xml version="1.0" encoding="utf-8"?><svg version="1.1" id="Layer_1" xmlns="http://www.w3.org/2000/svg" xmlns:xlink="http://www.w3.org/1999/xlink" x="0px" y="0px" viewBox="0 0 122.88 122.45" style="enable-background:new 0 0 122.88 122.45" xml:space="preserve"><g><path d="M67.13,0v55.75h55.75V66.5H67.13v55.75H56.38V66.5H0.63V55.75h55.75V0H67.13L67.13,0z M119.67,87.01l-12.23,11.64 l12.57,11.96l-7.39,7.77l-12.96-12.33L86.7,118.39l-7.39-7.77l12.57-11.96L79.65,87.01l7.39-7.76l12.62,12.01l12.62-12.01 L119.67,87.01L119.67,87.01z M44.08,11.16l-12.4,11.8l12.4,11.8l-7.39,7.77L23.9,30.36L11.11,42.53l-7.39-7.77l12.4-11.8 l-12.4-11.8l7.39-7.76L23.9,15.56L36.69,3.39L44.08,11.16L44.08,11.16z M22.88,76.7c6.32,0,12.04,2.56,16.18,6.7 c4.14,4.14,6.7,9.86,6.7,16.18c0,6.32-2.56,12.04-6.7,16.18c-4.14,4.14-9.86,6.7-16.18,6.7c-6.32,0-12.04-2.56-16.18-6.7 C2.56,111.61,0,105.89,0,99.58c0-6.32,2.56-12.04,6.7-16.18C10.84,79.26,16.56,76.7,22.88,76.7L22.88,76.7z M31.46,91 c-2.19-2.19-5.23-3.55-8.58-3.55c-3.35,0-6.39,1.36-8.58,3.55c-2.19,2.19-3.55,5.23-3.55,8.58c0,3.35,1.36,6.39,3.55,8.58 c2.19,2.19,5.23,3.55,8.58,3.55c3.35,0,6.38-1.36,8.58-3.55c2.19-2.2,3.55-5.23,3.55-8.58S33.65,93.19,31.46,91L31.46,91z M99.49,0.08c6.32,0,12.04,2.56,16.18,6.7c4.14,4.14,6.7,9.86,6.7,16.18c0,6.32-2.56,12.04-6.7,16.18 c-4.14,4.14-9.86,6.7-16.18,6.7c-6.32,0-12.04-2.56-16.18-6.7c-4.14-4.14-6.7-9.86-6.7-16.18c0-6.32,2.56-12.04,6.7-16.18 C87.46,2.65,93.18,0.08,99.49,0.08L99.49,0.08z M108.07,14.38c-2.2-2.19-5.23-3.55-8.58-3.55c-3.35,0-6.38,1.36-8.58,3.55 s-3.55,5.23-3.55,8.58s1.36,6.38,3.55,8.58c2.19,2.19,5.23,3.55,8.58,3.55c3.35,0,6.38-1.36,8.58-3.55 c2.19-2.2,3.55-5.23,3.55-8.58S110.27,16.58,108.07,14.38L108.07,14.38z"/></g></svg>